<?xml version="1.0"?><svg width="523.5791" height="557.71857" xmlns="http://www.w3.org/2000/svg">
 <title>Animated Blue Cartoon Eyes</title>

 <metadata id="metadata7">image/svg+xmlSmiley eyesSmiley eyes mouth look funny happy</metadata>
 <g>
  <title>Layer 1</title>
  <g externalResourcesRequired="false" id="layer1">
   <g externalResourcesRequired="false" id="g3196">
    <g id="g3164" transform="matrix(-1.24672 -0.130398 -0.231056 0.703598 1080.52 99.5606)">
     <path fill="#000000" fill-rule="evenodd" stroke-width="20" stroke-linecap="round" stroke-linejoin="round" stroke-miterlimit="4" stroke-dashoffset="2" d="m590.247681,407.94165a78.677536,173.746246 0 1 1 -157.355042,0a78.677536,173.746246 0 1 1 157.355042,0z" id="path3166"/>
     <path fill="#ffffff" fill-rule="evenodd" stroke-width="20" stroke-linecap="round" stroke-linejoin="round" stroke-miterlimit="4" stroke-dashoffset="2" d="m586.321472,422.420471a70.596321,155.900208 0 1 1 -141.192688,0a70.596321,155.900208 0 1 1 141.192688,0z" id="path3168"/>
    </g>
    <g id="g3160">
     <path fill="#000000" fill-rule="evenodd" stroke-width="20" stroke-linecap="round" stroke-linejoin="round" stroke-miterlimit="4" stroke-dashoffset="2" d="m266.22348,310.696838a104.177528,127.768707 0 1 1 -208.355095,0a104.177528,127.768707 0 1 1 208.355095,0z" id="path2383"/>
     <path fill="#ffffff" fill-rule="evenodd" stroke-width="20" stroke-linecap="round" stroke-linejoin="round" stroke-miterlimit="4" stroke-dashoffset="2" d="m261.024719,321.344238a93.477127,114.645172 0 1 1 -186.9543,0a93.477127,114.645172 0 1 1 186.9543,0z" id="path3155"/>
    </g>
    <path transform="rotate(16.2465 184.62 371.621)" fill="#00ffff" fill-rule="evenodd" stroke-width="20" stroke-linecap="round" stroke-linejoin="round" stroke-miterlimit="4" stroke-dashoffset="2" id="path3170" d="m212.903931,371.620697a28.284269,45.45686 0 1 1 -56.568527,0a28.284269,45.45686 0 1 1 56.568527,0z"/>
    <path transform="rotate(12.9704 183.338 372.692)" fill="#000000" fill-rule="evenodd" stroke-width="20" stroke-linecap="round" stroke-linejoin="round" stroke-miterlimit="4" stroke-dashoffset="2" id="path3172" d="m199.844025,374.649109a16.506063,22.26199 0 1 1 -33.012115,-3.914581a16.506063,22.26199 0 1 1 33.012115,3.914581z"/>
    <path fill="#000000" fill-rule="evenodd" stroke-width="20" stroke-linecap="round" stroke-linejoin="round" stroke-miterlimit="4" stroke-dashoffset="2" d="m107.763367,124.569565c-48.366005,13.386612 -73.462883,75.371384 -56.026344,138.369888c0.384811,1.390259 0.791092,2.771362 1.21048,4.139191c-1.415192,-58.938568 24.2864,-108.480896 67.234444,-120.367935c30.986374,-8.576324 64.360687,4.301834 91.467072,31.383926c-24.27597,-41.184433 -65.658859,-64.105347 -103.885651,-53.52507z" id="path3174"/>
    <path fill="#000000" fill-rule="evenodd" stroke-width="20" stroke-linecap="round" stroke-linejoin="round" stroke-miterlimit="4" stroke-dashoffset="2" d="m428.013031,128.777802c48.365967,13.386612 73.462921,75.371384 56.026337,138.369873c-0.384766,1.390289 -0.791077,2.771362 -1.210449,4.139191c1.415161,-58.938568 -24.286469,-108.480881 -67.234467,-120.36792c-30.986389,-8.57634 -64.360718,4.301834 -91.467102,31.383911c24.27597,-41.184418 65.658875,-64.105331 103.885681,-53.525055z" id="path3179"/>
    <path transform="rotate(20.9558 321.421 374.781)" id="svg_2" fill="#00ffff" fill-rule="evenodd" stroke-width="20" stroke-linecap="round" stroke-linejoin="round" stroke-miterlimit="4" stroke-dashoffset="2" d="m349.70517,374.781433a28.284269,45.45686 0 1 1 -56.568542,0a28.284269,45.45686 0 1 1 56.568542,0z"/>
    <path transform="rotate(18.034 317.421 379.781)" id="svg_3" fill="#000000" fill-rule="evenodd" stroke-width="20" stroke-linecap="round" stroke-linejoin="round" stroke-miterlimit="4" stroke-dashoffset="2" d="m333.927002,381.739014a16.5061,22.261999 0 1 1 -33.012024,-3.915009a16.5061,22.261999 0 1 1 33.012024,3.915009z"/>
   </g>
  </g>
 </g>
</svg>